<?xml version="1.0" encoding="utf-8"?>
<svg version="1.1" xmlns:xlink="http://www.w3.org/1999/xlink" width="16px" height="14px" xmlns="http://www.w3.org/2000/svg">
  <g transform="matrix(1 0 0 1 -594 -479 )">
    <path d="M 15.0990398457031 5.79102168554688  C 15.0979426015625 5.52429852929688  14.8802362050781 5.30785127148438  14.6140346796875 5.30785127148438  C 14.347815171875 5.30785127148438  14.1295331796875 5.52429851171875  14.1285258476563 5.79415155859375  L 14.1285258476563 12.3504903671875  C 14.1285258476563 12.6943092636719  13.8492831816406 12.9735339472656  13.5049246542969 13  L 2.41404027734375 13  C 2.07022138085938 12.9735339472656  1.78993541796875 12.6943272460937  2 12.3504903671875  L 2 1.64925780859375  C 1.78993541796875 1.30515110546875  2.07022138085938 1.02567459765625  2.41404027734375 1.02567459765625  L 9.55721320507812 1.02567459765625  C 9.82496167578125 1.02567459765625  10.0422363535156 0.80820204296875  10.0422363535156 0.540399607421875  C 10.0422363535156 0.27317278515625  9.82496165820313 0.0554124238281255  9.55721320507812 0.0554124238281255  L 2.34007442773438 0.0554124238281251  C 1.50187872851563 0.0554124238281251  0.819691244140625 0.737078259765625  1 1.57579560742187  L 1 12.4244741992188  C 0.819691244140625 13.263191546875  1.50187872851563 13.9445875585938  2.34007442773438 14  L 13.5783688554687 14  C 14.4171221855469 13.9445875585938  15.0990398457031 13.263191546875  15.0990398457031 12.4244741992188  L 15.0990398457031 5.79102168554688  Z " fill-rule="nonzero" fill="#0582dd" stroke="none" transform="matrix(1 0 0 1 594 479 )" />
  </g>
</svg>