<?xml version="1.0" encoding="utf-8"?>
<svg version="1.1" xmlns:xlink="http://www.w3.org/1999/xlink" width="13px" height="13px" xmlns="http://www.w3.org/2000/svg">
  <g transform="matrix(1 0 0 1 -306 -45 )">
    <path d="M 0.8209375 6.621125  L 7.488125 0.271625  C 7.69757931442915 0.0720647903787155  8.02820671657999 0.0767880389808697  8.231875 0.282249999999999  L 11.1271875 3.20253125  C 11.2259886650186 3.30204755971205  11.2814348555713 3.43659213282589  11.2814348555713 3.57682467579556  C 11.2814348555713 3.72998098260332  11.215335856064 3.87568578660728  11.10009375 3.9765625  L 4.12371875 10.087  C 4.02397779531073 10.1744843610616  3.89511227833717 10.2214823731343  3.76246875 10.21875  L 1.17634375 10.1635  C 0.887308361333996 10.1574289250495  0.656186246757275 9.92134913487918  0.65625 9.63225  L 0.65625 7.00575  C 0.656222296292651 6.86041184609798  0.715740378370653 6.72140832537387  0.8209375 6.621125  Z M 8.19309375 8.8130625  L 12.1748125 8.890625  C 12.4641768172085 8.89626760418557  12.6958041193064 9.13245567262962  12.6958041193064 9.421875  C 12.6958041193064 9.71533205096285  12.4579101759628 9.95322599430639  12.164453125 9.95322599430639  C 12.1609997538537 9.95322599430639  12.1575464647613 9.95319232793785  12.15409375 9.953125  L 8.172375 9.8755625  C 7.88311395508418 9.86977727910168  7.65164376062287 9.63363139134074  7.65164376062287 9.3443125  C 7.65164376062287 9.05085255226457  7.88954005226457 8.81295626062288  8.183 8.81295626062288  C 8.18654193223411 8.81295626062288  8.19008377593988 8.8129916755188  8.193625 8.8130625  Z M 9.97490625 3.5494375  L 7.8440625 1.4  L 1.71875 7.233125  L 1.71875 9.11215625  L 3.578125 9.152  L 9.97490625 3.5494375  Z M 1.71503125 11.546875  L 12.14878125 11.4693125  C 12.1501093516547 11.4693025392376  12.1514374859929 11.4692975588039  12.152765625 11.4692975588039  C 12.4461751501424 11.4692975588039  12.6840305661961 11.7071529748576  12.6840305661961 12.0005625  C 12.6840305661961 12.2924172210251  12.4485965129574 12.5296236511528  12.15675 12.5318125  L 1.723 12.609375  C 1.72167189834525 12.6093849607624  1.72034376400708 12.6093899411961  1.719015625 12.6093899411961  C 1.42560609985762 12.6093899411961  1.18775068380386 12.3715345251424  1.18775068380386 12.078125  C 1.18775068380386 11.7862702789749  1.42318473704265 11.5490638488472  1.71503125 11.546875  Z " fill-rule="nonzero" fill="#1c8de0" stroke="none" transform="matrix(1 0 0 1 306 45 )" />
  </g>
</svg>