<?xml version="1.0" encoding="utf-8"?>
<svg version="1.1" xmlns:xlink="http://www.w3.org/1999/xlink" width="20px" height="22px" xmlns="http://www.w3.org/2000/svg">
  <g transform="matrix(1 0 0 1 -1865 -85 )">
    <path d="M 12.4267900815217 20.21066609375  C 15.0245771059783 19.509862109375  17.31373046875 17.675747890625  18.5263459578804 15.00963921875  C 19.4799668817935 12.918318359375  19.617878736413 10.644899375  19.0700832201087 8.580586953125  C 18.4402972146739 6.198043671875  16.8904797894022 4.073658359375  14.6431470788043 2.782938125  L 15.6400560461957 0.602749296875001  L 9.97202785326087 2.10675265625  L 12.5070380434783 7.45330953125  L 13.5500551970109 5.17225671875  C 15.0771968410326 6.11597421875  16.1226672894022 7.59457015625  16.5650399116848 9.259394375  C 16.9607082201087 10.759221171875  16.8636540421196 12.39009921875  16.1719395380435 13.91194578125  C 15.2904729959239 15.84597265625  13.6427759850543 17.162819609375  11.7559400475543 17.676536796875  C 11.4828587646445 17.7503756265563  11.2054964796295 17.8069229208022  10.9254653532609 17.84585  L 12.0955494225543 20.29354765625  C 12.2068189538043 20.267351328125  12.3171484375 20.241038984375  12.4267900815217 20.21066609375  Z M 7.57836871603261 14.53573859375  L 6.49612177309782 16.92334015625  C 4.94630434782609 15.9813396875  3.88494480298913 14.4900284375  3.43828464673913 12.810052578125  C 3.04273097826087 11.310202578125  3.14056470788043 9.67839640625  3.83138502038043 8.158290078125  C 4.71289741847826 6.223474296875  6.3605715013587 4.9065809375  8.24743036684783 4.392886953125  C 8.56030570652174 4.30817234375  8.87889011548913 4.24728734375  9.20093665081522 4.2082596875  L 8.03422299592391 1.747869921875  C 7.88115574048913 1.780957578125  7.72806555706522 1.816458359375  7.57664911684783 1.857945546875  C 4.9796875 2.560350546875  2.68975458559783 4.3944415625  1.47619904891304 7.0605734375  C 0.524435292119565 9.151105390625  0.386362941576087 11.42531328125  0.934204313858695 13.48872078125  L 0.935878057065217 13.495519296875  C 1.57066236413043 15.89414234375  3.13886803668478 18.029549140625  5.41132982336956 19.316858515625  L 4.46873726222826 21.39727390625  L 10.1309188179348 19.8729678125  L 7.57836871603261 14.53573859375  Z " fill-rule="nonzero" fill="#0582dd" stroke="none" transform="matrix(1 0 0 1 1865 85 )" />
  </g>
</svg>