<?xml version="1.0" encoding="utf-8"?>
<svg version="1.1" xmlns:xlink="http://www.w3.org/1999/xlink" width="17px" height="17px" xmlns="http://www.w3.org/2000/svg">
  <g transform="matrix(1 0 0 1 -1616 -207 )">
    <path d="M 3.5540625 6.72916667358398  L 6.46973957641602 9.64484375  C 6.63576233909885 9.81086650993095  6.72903295620864 10.0360416960892  6.72903295620864 10.270833336792  C 6.72903295620864 10.7597616127911  6.33267827599915 11.1561162930006  5.84375 11.1561162930006  C 5.60895836438198 11.1561162930006  5.38378318267131 11.0628456799194  5.21776042358398 10.896822923584  L 0.790677076416015 6.46973957641601  L 0.726041673583984 6.39713542358398  L 0.71984375 6.39005207641601  L 0.704791673583984 6.37057292358398  C 0.681001514352193 6.33971499742482  0.659965919447484 6.30682837037456  0.641927076416015 6.27229167358398  C 0.624201065216545 6.2398254988644  0.608240349462843 6.20642621868746  0.594114576416015 6.17223957641601  L 0.574635423583983 6.11911457641601  L 0.563124999999999 6.07927082641601  C 0.5579858002895 6.0601918505855  0.55326245729829 6.04100328135945  0.548958326416014 6.02171875  L 0.540989576416014 5.97479167358398  C 0.534565419576887 5.93140555853898  0.531310280281378 5.88760910550934  0.53125 5.84375  L 0.534791673583984 5.92255207641601  C 0.533144838695422 5.90192164445493  0.531963979965578 5.88125666165668  0.53125 5.86057292358399  L 0.53125 5.84375  L 0.53125 5.82692707641601  C 0.53125 5.8065625  0.533020826416015 5.78619790283203  0.534791673583984 5.76494792358398  L 0.540989576416016 5.71182292358398  L 0.548958326416016 5.66578125  C 0.5525 5.64630207641602  0.5578125 5.62682292358398  0.562239576416015 5.60822917358399  L 0.575520826416015 5.5675  C 0.580833326416015 5.54979167358398  0.58791665283203 5.53296875  0.594114576416015 5.51526042358398  C 0.60746863327948 5.48073550259862  0.623453084748966 5.44728655323179  0.641927076416015 5.41520832641601  L 0.660520826416014 5.38333332641602  C 0.69692017203419 5.32326024163293  0.740640277790711 5.26794092414509  0.790677076416014 5.21864582641602  L 0.719843749999999 5.29833332641602  C 0.741811004108327 5.27035393983028  0.765466124722287 5.24374192654075  0.790677076416014 5.21864582641602  L 5.21776042358399 0.791562500000001  C 5.38378318267131 0.625539743664553  5.60895836438198 0.532269130583351  5.84375 0.532269130583351  C 6.33267827599915 0.532269130583351  6.72903295620864 0.928623810792838  6.72903295620864 1.41755208679199  C 6.72903295620864 1.65234372749483  6.63576233909885 1.87751891365303  6.46973957641602 2.04354167358398  L 3.5540625 4.95833332641602  L 12.041666673584 4.95833332641602  C 14.4120364652811 4.95801624799885  16.361902484942 6.82512519439954  16.464322923584 9.19328125  L 16.46875 9.38541667358398  L 16.46875 15.583333326416  C 16.4686751452528 16.0722825115617  16.0722825276675 16.4686144488169  15.583333336792 16.4686144488169  C 15.0943841459164 16.4686144488169  14.6979915283312 16.0722825115617  14.697916673584 15.583333326416  L 14.697916673584 9.38541667358398  C 14.697916673584 7.91841030684594  13.508673040322 6.72916667358398  12.041666673584 6.72916667358398  L 3.5540625 6.72916667358398  Z " fill-rule="nonzero" fill="#7e7e7e" stroke="none" transform="matrix(1 0 0 1 1616 207 )" />
  </g>
</svg>