<?xml version="1.0" encoding="utf-8"?>
<svg version="1.1" xmlns:xlink="http://www.w3.org/1999/xlink" width="546px" height="651px" xmlns="http://www.w3.org/2000/svg">
  <g transform="matrix(1 0 0 1 -1342 -277 )">
    <path d="M 1343 285  A 7 7 0 0 1 1350 278 L 1880 278  A 7 7 0 0 1 1887 285 L 1887 920  A 7 7 0 0 1 1880 927 L 1350 927  A 7 7 0 0 1 1343 920 L 1343 285  Z " fill-rule="nonzero" fill="#ffffff" stroke="none" />
    <path d="M 1342.5 285  A 7.5 7.5 0 0 1 1350 277.5 L 1880 277.5  A 7.5 7.5 0 0 1 1887.5 285 L 1887.5 920  A 7.5 7.5 0 0 1 1880 927.5 L 1350 927.5  A 7.5 7.5 0 0 1 1342.5 920 L 1342.5 285  Z " stroke-width="1" stroke="#d7d7d7" fill="none" stroke-opacity="0.701960784313725" />
  </g>
</svg>