<?xml version="1.0" encoding="utf-8"?>
<svg version="1.1" xmlns:xlink="http://www.w3.org/1999/xlink" width="6px" height="16px" xmlns="http://www.w3.org/2000/svg">
  <g transform="matrix(1 0 0 1 -1081 -666 )">
    <path d="M 5.89285714285714 15.3161057692308  C 5.81877790178571 15.4387019230769  5.71456473214285 15.5  5.61160714285714 15.5  C 5.52371651785714 15.5  5.43708147321429 15.4567307692308  5.36551339285714 15.3665865384615  L 0.129743303571429 8.38581730769231  C -0.0234375 8.17487980769231  -0.0234375 7.82331730769231  0.129743303571429 7.61237980769231  L 5.36551339285714 0.631610576923079  C 5.51869419642857 0.436899038461541  5.75599888392857 0.456730769230771  5.8916015625 0.682091346153848  C 6.02845982142857 0.905649038461541  6.01213727678572 1.24278846153846  5.8564453125 1.4375  L 0.983537946428571 8  L 5.85770089285714 14.5606971153846  C 6.01339285714286 14.7554086538462  6.02845982142857 15.0925480769231  5.89285714285714 15.3161057692308  Z " fill-rule="nonzero" fill="#2c2c2c" stroke="none" transform="matrix(1 0 0 1 1081 666 )" />
  </g>
</svg>