<?xml version="1.0" encoding="utf-8"?>
<svg version="1.1" xmlns:xlink="http://www.w3.org/1999/xlink" width="10px" height="8px" xmlns="http://www.w3.org/2000/svg">
  <g transform="matrix(1 0 0 1 -1564 -670 )">
    <path d="M 7.80681817737926 0.781666673177085  L 7.80681817737926 0.783333333333334  C 7.9645786126814 0.567729338948554  8.17219721368215 0.447847095697368  8.38783152367646 0.447847095697368  C 8.85852875364588 0.447847095697368  9.24010425094918 1.00749115840888  9.24010425094918 1.69784709569737  C 9.24010425094918 2.01411074558339  9.1583663602844 2.31861802282099  9.01136364080256 2.54999999348958  L 5.64261363636364 7.49166667317708  C 5.28763980872641 8.01195380483373  4.71236019127359 8.01195380483373  4.35738636363637 7.49166667317708  L 0.988068186257103 2.54999999348958  C 0.834769609047719 2.31699120502025  0.74910066687775 2.00582684558999  0.74910066687775 1.68202878701913  C 0.74910066687775 0.991672849730639  1.13067616418105 0.43202878701913  1.60137339415048 0.43202878701913  C 1.82242280436758 0.43202878701913  2.03482511555945 0.557992401030326  2.19374999556108 0.783333333333334  L 5 4.89833333333333  L 7.80681817737926 0.781666673177085  Z " fill-rule="nonzero" fill="#111111" stroke="none" transform="matrix(1 0 0 1 1564 670 )" />
  </g>
</svg>