<?xml version="1.0" encoding="utf-8"?>
<svg version="1.1" xmlns:xlink="http://www.w3.org/1999/xlink" width="75px" height="39px" xmlns="http://www.w3.org/2000/svg">
  <defs>
    <mask fill="white" id="clip120">
      <path d="M 0 34.8214285714286  L 0 4.17857142857143  C 0 1.83857142857102  1.49999999999993 0  3.40909090909091 0  L 31.7523056653499 0  L 38.3399209486173 0  L 71.5909090909091 0  C 73.5000000000001 0  75 1.83857142857102  75 4.17857142857143  L 75 34.8214285714286  C 75 37.161428571429  73.5000000000001 39  71.5909090909091 39  L 3.40909090909091 39  C 1.49999999999993 39  0 37.161428571429  0 34.8214285714286  Z " fill-rule="evenodd" />
    </mask>
  </defs>
  <g transform="matrix(1 0 0 1 -609 -141 )">
    <path d="M 0 34.8214285714286  L 0 4.17857142857143  C 0 1.83857142857102  1.49999999999993 0  3.40909090909091 0  L 31.7523056653499 0  L 38.3399209486173 0  L 71.5909090909091 0  C 73.5000000000001 0  75 1.83857142857102  75 4.17857142857143  L 75 34.8214285714286  C 75 37.161428571429  73.5000000000001 39  71.5909090909091 39  L 3.40909090909091 39  C 1.49999999999993 39  0 37.161428571429  0 34.8214285714286  Z " fill-rule="nonzero" fill="#ffffff" stroke="none" transform="matrix(1 0 0 1 609 141 )" />
    <path d="M 0 34.8214285714286  L 0 4.17857142857143  C 0 1.83857142857102  1.49999999999993 0  3.40909090909091 0  L 31.7523056653499 0  L 38.3399209486173 0  L 71.5909090909091 0  C 73.5000000000001 0  75 1.83857142857102  75 4.17857142857143  L 75 34.8214285714286  C 75 37.161428571429  73.5000000000001 39  71.5909090909091 39  L 3.40909090909091 39  C 1.49999999999993 39  0 37.161428571429  0 34.8214285714286  Z " stroke-width="2" stroke="#d7d7d7" fill="none" transform="matrix(1 0 0 1 609 141 )" mask="url(#clip120)" />
  </g>
</svg>