<?xml version="1.0" encoding="utf-8"?>
<svg version="1.1" xmlns:xlink="http://www.w3.org/1999/xlink" width="16px" height="16px" xmlns="http://www.w3.org/2000/svg">
  <g transform="matrix(1 0 0 1 -249 -384 )">
    <path d="M 15.5 3  C 15.5 1.625  14.375 0.5  13 0.5  L 3 0.5  C 1.625 0.5  0.5 1.625  0.5 3  L 0.5 13  C 0.5 14.375  1.625 15.5  3 15.5  L 13 15.5  C 14.375 15.5  15.5 14.375  15.5 13  L 15.5 3  Z M 14 3  L 14 13  C 14.25 13.6875  13.6875 14.25  13 14  L 3 14  C 2.3125 14.25  1.75 13.6875  2 13  L 2 3  C 1.75 2.3125  2.3125 1.75  3 2  L 13 2  C 13.6875 1.75  14.25 2.3125  14 3  Z " fill-rule="nonzero" fill="#aaaaaa" stroke="none" transform="matrix(1 0 0 1 249 384 )" />
  </g>
</svg>