<?xml version="1.0" encoding="utf-8"?>
<svg version="1.1" xmlns:xlink="http://www.w3.org/1999/xlink" width="14px" height="15px" xmlns="http://www.w3.org/2000/svg">
  <g transform="matrix(1 0 0 1 -159 -857 )">
    <path d="M 3.69041668554688 14.875  L 0.240625000000001 14.875  L 5.003875 7.60445831445313  L 0.640583314453124 0.375  L 4.152 0.375  L 6.533625 4.99627081445313  C 6.75233331445313 5.43429162890625  6.90277081445312 5.76114581445313  6.9849375 5.97683331445313  L 7.01575 5.97683331445313  C 7.17404168554688 5.62641662890626  7.33777081445313 5.28627081445313  7.50875 4.95579168554688  L 10.0547083144531 0.375  L 13.2779375 0.375  L 8.80227081445312 7.56458331445312  L 13.3915208144531 14.875  L 9.96166668554688 14.875  L 7.21029168554687 9.79879168554687  C 7.08067609860707 9.583332236447  6.97067845384463 9.35666429606066  6.881625 9.12152081445313  L 6.84114581445312 9.12152081445313  C 6.7928125 9.2834375  6.68708331445312 9.50214581445313  6.52335418554688 9.77885418554688  L 3.69041668554688 14.875  Z " fill-rule="nonzero" fill="#f9f7f7" stroke="none" transform="matrix(1 0 0 1 159 857 )" />
  </g>
</svg>