<?xml version="1.0" encoding="utf-8"?>
<svg version="1.1" xmlns:xlink="http://www.w3.org/1999/xlink" width="18px" height="15px" xmlns="http://www.w3.org/2000/svg">
  <g transform="matrix(1 0 0 1 -528 -858 )">
    <path d="M 5.04931642492676 10.6357572115385  C 5.08876173742676 10.9557331730769  5.11446097485351 11.2346394039213  5.12701170007324 11.4730889614633  L 5.17183591882324 11.4730889614633  C 5.22666334725156 10.9262682625993  5.31186824672277 10.383101765338  5.42703515625 9.84623796161358  L 7.53915234375 0.432692288536656  L 10.2704414249268 0.432692288536656  L 12.45547265625 9.70525240384615  C 12.56484375 10.1631490384615  12.65628515625 10.7454807500751  12.7286015811768 11.4540865384615  L 12.7650585750732 11.4540865384615  C 12.7955390438232 10.9655408845403  12.87144140625 10.4009855960787  12.9927656063232 9.76164661545974  L 14.7409101375732 0.432692288536656  L 17.2265625 0.432692288536656  L 14.1677578125 13.9182692307692  L 11.2631484375 13.9182692307692  L 9.17792578125 4.9846875  C 9.11756251867676 4.72723557692308  9.04883203125 4.3919350769982  8.97292966882324 3.97817305776742  C 8.91452252181732 3.67939376727745  8.86747131896798 3.37839690376213  8.8318828125 3.07586538461538  L 8.7960234375 3.07586538461538  C 8.77151954992676 3.29531251915565  8.7243046875 3.62141825007512  8.65437890625 4.05356969238281  C 8.6042886039405 4.37443530061926  8.54809821988707 4.69426783219049  8.48583984375 5.01288463454027  L 6.52851564367676 13.9182692307692  L 3.578484375 13.9182692307692  L 0.492187481323243 0.432692288536656  L 3.02326173742676 0.432692288536656  L 4.92619920007324 9.86524038461538  C 4.96863277514648 10.0595552693059  5.00987105639649 10.3163942499249  5.04931642492676 10.6363702114633  Z " fill-rule="nonzero" fill="#f9f7f7" stroke="none" transform="matrix(1 0 0 1 528 858 )" />
  </g>
</svg>