<?xml version="1.0" encoding="utf-8"?>
<svg version="1.1" xmlns:xlink="http://www.w3.org/1999/xlink" width="30px" height="34px" xmlns="http://www.w3.org/2000/svg">
  <g transform="matrix(1 0 0 1 -1394 -226 )">
    <path d="M 27.374267578125 17.0071149553571  L 27.388916015625 17.0071149553571  C 27.51708984375 16.8541434151786  27.637939453125 16.6833844866071  27.755126953125 16.5197405133929  C 29.853515625 13.6488560267857  30.37353515625 10.9949776785714  29.21630859375 9.04547991071429  C 28.062744140625 7.09598214285715  25.43701171875 6.20305524553572  21.826171875 6.52322823660715  C 21.617431640625 6.541015625  21.405029296875 6.56591796875  21.192626953125 6.5908203125  C 21.1083984375 6.39871651785715  21.024169921875 6.20661272321429  20.93994140625 6.02162388392857  C 19.427490234375 2.82345145089286  17.318115234375 1.0625  15 1.0625  C 12.681884765625 1.0625  10.576171875 2.83056640625  9.0673828125 6.02873883928571  C 8.9794921875 6.21017020089286  8.89892578125 6.39871651785714  8.814697265625 6.58726283482143  C 8.60595703125 6.56591796875  8.397216796875 6.53745814732143  8.18115234375 6.51967075892857  C 4.573974609375 6.1923828125  1.944580078125 7.08530970982143  0.791015625 9.03480747767857  C -0.362548828125 10.9843052455357  0.157470703125 13.63818359375  2.24853515625 16.5090680803571  C 2.36572265625 16.6620396205357  2.493896484375 16.8327985491071  2.61474609375 16.9928850446429  C 2.486572265625 17.1458565848214  2.36572265625 17.3201729910714  2.24853515625 17.4767020089286  C 0.150146484375001 20.3475864955357  -0.373535156249999 23.0050223214286  0.787353515625 24.9545200892857  C 1.790771484375 26.6478794642857  3.892822265625 27.5408063616071  6.778564453125 27.5408063616071  C 7.225341796875 27.5408063616071  7.694091796875 27.5194614955357  8.173828125 27.4767717633929  C 8.382568359375 27.458984375  8.59130859375 27.43408203125  8.807373046875 27.4091796875  C 8.887939453125 27.6012834821429  8.975830078125 27.7898297991071  9.06005859375 27.9783761160714  C 10.56884765625 31.1765485491071  12.67822265625 32.9375  14.996337890625 32.9375  C 17.314453125 32.9375  19.41650390625 31.1801060267857  20.9326171875 27.9783761160714  C 21.0205078125 27.7969447544643  21.10107421875 27.6048409598214  21.185302734375 27.4198521205357  C 21.859130859375 27.5087890625  22.540283203125 27.5514787946429  23.221435546875 27.5550362723214  C 26.103515625 27.5550362723214  28.1982421875 26.6549944196429  29.20166015625 24.9758649553571  C 30.35888671875 23.0263671875  29.84619140625 20.3724888392857  27.747802734375 17.5016043526786  C 27.630615234375 17.3344029017857  27.50244140625 17.1707589285714  27.374267578125 17.0071149553571  Z M 8.089599609375 25.4383370535714  L 7.99072265625 25.4490094866071  C 5.284423828125 25.69091796875  3.321533203125 25.1395089285714  2.60009765625 23.9370814732143  C 1.88232421875 22.7346540178571  2.376708984375 20.81005859375  3.955078125 18.6577845982143  L 4.010009765625 18.5830775669643  C 4.9951171875 19.5934012276786  6.060791015625 20.5254603794643  7.19970703125 21.3721400669643  C 7.386474609375 22.7488839285714  7.68310546875 24.1078404017857  8.089599609375 25.4383370535714  Z M 6.910400390625 17.0035574776786  C 6.910400390625 17.5193917410714  6.925048828125 18.0174386160714  6.947021484375 18.5226004464286  C 6.39404296875 18.0387834821429  5.86669921875 17.5336216517857  5.361328125 17  C 5.8447265625 16.4877232142857  6.3720703125 15.97900390625  6.947021484375 15.4773995535714  C 6.925048828125 15.9825613839286  6.910400390625 16.4877232142857  6.910400390625 17.0035574776786  Z M 8.096923828125 8.55454799107142  C 7.694091796875 9.88860212053571  7.3974609375 11.24755859375  7.210693359375 12.6243024553571  C 6.07177734375 13.4709821428571  5.006103515625 14.4030412946429  4.02099609375 15.4098074776786  C 4.002685546875 15.3849051339286  3.980712890625 15.3600027901786  3.966064453125 15.3351004464286  C 2.391357421875 13.1792689732143  1.904296875 11.2546735491071  2.611083984375 10.05224609375  C 3.21533203125 9.03836495535714  4.7021484375 8.48695591517857  6.77490234375 8.48695591517857  C 7.218017578125 8.48695591517857  7.657470703125 8.51185825892857  8.096923828125 8.55454799107142  Z M 19.8193359375 8.89250837053571  C 20.035400390625 9.54708426339286  20.22216796875 10.2372349330357  20.38330078125 10.9736328125  C 19.508056640625 10.4293387276786  18.61083984375 9.927734375  17.68798828125 9.46170479910714  C 18.4130859375 9.23402622767857  19.127197265625 9.04547991071429  19.8193359375 8.89250837053571  Z M 10.953369140625 6.96791294642857  C 12.088623046875 4.52392578125  13.590087890625 3.1044921875  15.010986328125 3.10093470982143  C 16.42822265625 3.10093470982143  17.9296875 4.52748325892857  19.075927734375 6.97502790178571  C 17.691650390625 7.29875837053571  16.3330078125 7.72565569196428  15.018310546875 8.25571986607143  C 13.699951171875 7.72565569196428  12.34130859375 7.29520089285714  10.953369140625 6.96791294642857  Z M 10.1953125 8.89250837053571  L 10.1953125 8.88895089285714  C 10.89111328125 9.03836495535714  11.605224609375 9.23046875  12.333984375 9.46170479910714  C 11.4111328125 9.927734375  10.513916015625 10.4293387276786  9.638671875 10.9736328125  C 9.788818359375 10.2692522321429  9.979248046875 9.57554408482143  10.20263671875 8.89250837053571  L 10.1953125 8.89250837053571  Z M 10.1953125 25.1074916294643  C 9.96826171875 24.4244559151786  9.781494140625 23.7307477678571  9.63134765625 23.0263671875  C 10.5029296875 23.5706612723214  11.400146484375 24.072265625  12.32666015625 24.5382952008929  C 11.605224609375 24.7659737723214  10.89111328125 24.9580775669643  10.1953125 25.1074916294643  Z M 19.068603515625 27.0320870535714  C 17.92236328125 29.47607421875  16.4208984375 30.9061802455357  15.00732421875 30.9026227678571  C 13.5791015625 30.9026227678571  12.088623046875 29.47607421875  10.9423828125 27.0285295758929  C 12.32666015625 26.7047991071429  13.681640625 26.2779017857143  15 25.7478376116071  C 16.318359375 26.2779017857143  17.677001953125 26.7083565848214  19.068603515625 27.0320870535714  Z M 20.38330078125 23.0299246651786  C 20.225830078125 23.7698800223214  20.035400390625 24.4635881696429  19.8193359375 25.1146065848214  C 19.097900390625 24.9580775669643  18.3837890625 24.7659737723214  17.6806640625 24.5418526785714  C 18.603515625 24.0758231026786  19.50439453125 23.57421875  20.38330078125 23.0299246651786  Z M 20.826416015625 13.73779296875  C 21.064453125 15.9114118303571  21.064453125 18.1028180803571  20.830078125 20.2764369419643  C 19.918212890625 20.9167829241071  18.973388671875 21.5108816964286  17.999267578125 22.05517578125  C 17.025146484375 22.5994698660714  16.025390625 23.0975167410714  14.996337890625 23.5386439732143  C 12.945556640625 22.6492745535714  10.99365234375 21.5535714285714  9.17724609375001 20.2693219866071  C 9.06005859375001 19.1842912946429  9.00146484375001 18.0921456473214  9.00146484375001 17.0035574776786  C 9.00146484375001 15.9114118303571  9.06005859375001 14.8192661830357  9.17724609375001 13.7306780133929  C 10.997314453125 12.4499860491071  12.952880859375 11.3578404017857  15.00732421875 10.4684709821429  C 17.061767578125 11.3542829241071  19.010009765625 12.4499860491071  20.826416015625 13.73779296875  Z M 21.9140625 8.56166294642857  L 22.020263671875 8.55454799107142  C 22.44140625 8.51541573660714  22.84423828125 8.49762834821428  23.228759765625 8.49762834821428  C 25.308837890625 8.49762834821428  26.802978515625 9.04903738839285  27.403564453125 10.0629185267857  C 28.11767578125 11.2689034598214  27.623291015625 13.18994140625  26.048583984375 15.3422154017857  L 25.99365234375 15.4169224330357  C 25.008544921875 14.4065987723214  23.94287109375 13.4745396205357  22.803955078125 12.6278599330357  C 22.6171875 11.2511160714286  22.320556640625 9.89215959821428  21.9140625 8.56166294642857  Z M 23.104248046875 17  C 23.1005859375 16.4877232142857  23.089599609375 15.9825613839286  23.067626953125 15.48095703125  C 23.63525390625 15.9825613839286  24.17724609375 16.4877232142857  24.6533203125 17.0035574776786  C 24.166259765625 17.5158342633929  23.638916015625 18.0245535714286  23.067626953125 18.5261579241071  C 23.089599609375 18.02099609375  23.104248046875 17.5122767857143  23.104248046875 17  Z M 27.38525390625 23.9513113839286  L 27.396240234375 23.9513113839286  C 26.68212890625 25.1537388392857  24.71923828125 25.7015904017857  22.005615234375 25.4525669642857  L 21.903076171875 25.4454520089286  C 22.3095703125 24.1149553571429  22.606201171875 22.7559988839286  22.789306640625 21.3792550223214  C 23.92822265625 20.5325753348214  24.993896484375 19.6005161830357  25.97900390625 18.59375  C 25.997314453125 18.61865234375  26.019287109375 18.6435546875  26.033935546875 18.66845703125  C 27.608642578125 20.8242885044643  28.095703125 22.7488839285714  27.38525390625 23.9513113839286  Z " fill-rule="nonzero" fill="#40bba9" stroke="none" transform="matrix(1 0 0 1 1394 226 )" />
  </g>
</svg>