<?xml version="1.0" encoding="utf-8"?>
<svg version="1.1" xmlns:xlink="http://www.w3.org/1999/xlink" width="7px" height="4px" xmlns="http://www.w3.org/2000/svg">
  <g transform="matrix(1 0 0 1 -568 -461 )">
    <path d="M 6.0015625 0.532812499999999  C 6.0015625 0.264062499999999  5.81875 0.0437499999999984  5.5953125 0.0421874999999998  L 1.384375 0.00937499999999947  C 1.1609375 0.00781249999999911  0.978125 0.225  0.978125 0.493749999999999  C 0.978125 0.762499999999999  1.1609375 0.9828125  1.384375 0.984374999999999  L 5.5953125 1.0171875  C 5.81875 1.01875  6.0015625 0.801562499999998  6.0015625 0.532812499999999  Z M 6.0015625 2.5171875  C 6.0015625 2.2484375  5.81875 2.028125  5.5953125 2.0265625  L 1.384375 1.99375  C 1.1609375 1.9921875  0.978125 2.209375  0.978125 2.478125  C 0.978125 2.746875  1.1609375 2.9671875  1.384375 2.96875  L 5.5953125 3.0015625  C 5.81875 3.0046875  6.0015625 2.7859375  6.0015625 2.5171875  Z " fill-rule="nonzero" fill="#0582dd" stroke="none" transform="matrix(1 0 0 1 568 461 )" />
  </g>
</svg>